<svg xmlns="http://www.w3.org/2000/svg" width="591.81" height="121.43" viewBox="0 0 591.81 121.43"><g><g><path d="M338.74,85.65c-4.87,17.06-27.82,27.9-47.07,22.66C270.51,102.55,258.24,80.71,264,59c5.48-20.76,26.91-33.18,48.23-28,21,5.14,34.22,26,29.25,46.66H284.79c.66,5.71,5.47,10.52,11.79,11.74,6,1.16,11.89.93,17.19-2.77a5.51,5.51,0,0,1,2.89-1C323.91,85.61,331.16,85.65,338.74,85.65ZM320.25,61.39c-2.52-7.57-10.42-12.15-19.78-11.74-7,.3-14,5.51-15.48,11.74Z" style="fill: #29243e"></path><path d="M551.72,29.91a39.93,39.93,0,1,1-39.86,39.93A39.8,39.8,0,0,1,551.72,29.91Zm.47,19.73c-11.71,0-20.2,8.36-20.29,20S540.45,90,552,90s19.64-8.53,19.61-20.3C571.56,58.09,563.41,49.66,552.19,49.64Z" style="fill: #29243e"></path><path d="M258.5,91.34c0-.73-1.22-1.88-2-2-8.11-1.62-11.31-5-11.63-13.29-.3-7.84-.15-15.69-.16-23.53,0-.54,0,0,.06-1.88h13.55V30.78H244.64V26.51c0-6.21,0-12.42,0-18.63h0V.18H224.31V31l-2.73,0h-.08c-1.34,0-2.63,0-3.89,0H213V48.27h0v2.4h11.43c0,7.7-.33,14.86.11,22a68.44,68.44,0,0,0,2.67,16.52c4.11,12.84,18.85,21.71,31.37,19.26C258.59,102.77,258.67,97.05,258.5,91.34Z" style="fill: #29243e"></path><path d="M417.75,79.87c0-6-.11-12.07-.36-18.09-.51-12.22-5.49-22.45-17.05-28.36-5.91-3-12.25-3.73-18.77-3.45-17.53.76-29.49,11.3-31.19,28.66-1,10.22-.64,20.57-.8,30.86-.09,6.19,0,12.38,0,19.06h14.15c.85,0,1.7,0,2.55,0a8,8,0,0,0,1.24,0h2.29v-3.36c0-.08,0-.14,0-.23,0-.45,0-.89,0-1.34v-1.76h0q-.14-16.71,0-33.43a42.78,42.78,0,0,1,1.08-9.72c1.61-6.54,5.71-9.13,13.46-9.07,6.6,0,10.8,3.11,12.19,9.37a44.73,44.73,0,0,1,1,9.39c.09,10.36,0,20.72.09,31.08h0v9.12h20.17V79.86Z" style="fill: #29243e"></path><path d="M504.59,32.93V0H484.3V29.91l.06-.06V35.7c-8.21-5.57-16.61-6.54-25.25-5.49C439.38,32.62,424.29,50.67,424.79,71c.49,20.12,16.69,37.21,36.65,38.68,23.6,1.73,42.87-16,43.06-39.82.1-12.31.1-24.63.08-36.95ZM464.46,90c-11.36-.07-19.52-8.58-19.49-20.32s8.24-20.08,20-20c11.26,0,19.67,8.7,19.63,20.24S476,90.08,464.46,90Z" style="fill: #29243e"></path><path d="M213.31,84.27c0-5.4,0-10.79-.12-16.19-.5-23.94-23.25-42.14-46.77-37.63C144.87,34.58,130.7,54,134,75.83c4.69,31.29,42,43.45,59.19,25.8,0,1.62-.13,2.87,0,4v2.86h20.15V84.26ZM173.51,90c-11.33,0-19.9-8.7-19.94-20.14s8.57-20.23,20.14-20.22c11.38,0,19.67,8.56,19.62,20.24S184.88,90.05,173.51,90Z" style="fill: #29243e"></path></g><g><path d="M72.26,14.07a4.09,4.09,0,0,1,2.1.48L86.49,21c2.54,1.36,5.1,2.7,7.63,4.08a4,4,0,0,1,2.21,3.7q0,6.89,0,13.76c0,3.58,0,7.17,0,10.75h0v.26l-.2.12L72.15,68.05v-54" style="fill: #5998f8"></path><path d="M72.15,68.05v-54a4.08,4.08,0,0,0-2.16.64l-11.37,6.8q-5.22,3.14-10.46,6.25l-.07,0V82.45Z" style="fill: #71abf9"></path><path d="M24.15,42.11,44.34,30l3.54-2.12.26-.15c0,.09,0,.15,0,.21l-.07,54.48c-7.2,4.3-14.7,8.78-21.89,13.09a4,4,0,0,1-2,.57Z" style="fill: #77ccf9"></path><path d="M24.16,42.1v54a4.29,4.29,0,0,1-2-.46l-9.38-5C9.24,88.79,5.71,86.92,2.2,85A3.93,3.93,0,0,1,0,81.36c0-5.89,0-11.79,0-17.68,0-1.64,0-3.28,0-4.92a3.92,3.92,0,0,1,2-3.44c3.88-2.35,7.78-4.67,11.68-7l9.82-5.88Z" style="fill: #87d6fb"></path><path d="M72.15,68.05,48.1,82.45v1.06l0,5.89,0,8.15,0,7c0,.69,0,1.38,0,2.07a4.1,4.1,0,0,0,2.22,3.69l18.95,10.07a19.23,19.23,0,0,0,1.84.85,2.78,2.78,0,0,0,.92.16Z" style="fill: #788ef8"></path><path d="M72.14,98v23.41a4.18,4.18,0,0,0,2.13-.62Q84.1,114.91,93.94,109a4.3,4.3,0,0,0,2.2-3.89c0-1.28,0-2.56,0-3.85q0-11.3.06-22.6l.07-25.14L72.15,68.05" style="fill: #4162ef"></path></g></g></svg>